<svg xmlns="http://www.w3.org/2000/svg" width="55" height="55" viewBox="0 0 55 55" fill="none">
  <path d="M23.186 36.803L13.6471 27.2618L16.826 24.0829L23.186 30.4407L35.9016 17.7229L39.0827 20.904L23.186 36.7985V36.803Z" fill="#005071"/>
  <path fill-rule="evenodd" clip-rule="evenodd" d="M2.40637 27.1044C2.40637 13.4469 13.4785 2.37476 27.1361 2.37476C40.7936 2.37476 51.8658 13.4469 51.8658 27.1044C51.8658 40.762 40.7936 51.8341 27.1361 51.8341C13.4785 51.8341 2.40637 40.762 2.40637 27.1044ZM27.1361 47.3378C24.479 47.3378 21.8479 46.8145 19.3931 45.7977C16.9383 44.7808 14.7077 43.2905 12.8289 41.4116C10.9501 39.5328 9.45968 37.3023 8.44285 34.8474C7.42603 32.3926 6.90268 29.7615 6.90268 27.1044C6.90268 24.4474 7.42603 21.8163 8.44285 19.3615C9.45968 16.9066 10.9501 14.6761 12.8289 12.7973C14.7077 10.9184 16.9383 9.42806 19.3931 8.41124C21.8479 7.39442 24.479 6.87106 27.1361 6.87106C32.5023 6.87106 37.6487 9.00279 41.4432 12.7973C45.2377 16.5918 47.3694 21.7382 47.3694 27.1044C47.3694 32.4707 45.2377 37.6171 41.4432 41.4116C37.6487 45.2061 32.5023 47.3378 27.1361 47.3378Z" fill="#005071"/>
</svg>