<svg xmlns="http://www.w3.org/2000/svg" width="61" height="61" viewBox="0 0 61 61" fill="none">
    <path d="M53.8026 30.538H50.4764C50.215 30.538 50.0012 30.7518 50.0012 31.0131V50.0203H11.0366V11.0557H30.0437C30.3051 11.0557 30.5189 10.8418 30.5189 10.5805V7.25423C30.5189 6.99288 30.3051 6.77905 30.0437 6.77905H8.66072C7.60939 6.77905 6.76001 7.62843 6.76001 8.67976V52.3961C6.76001 53.4475 7.60939 54.2969 8.66072 54.2969H52.3771C53.4284 54.2969 54.2778 53.4475 54.2778 52.3961V31.0131C54.2778 30.7518 54.064 30.538 53.8026 30.538Z" fill="#005071"/>
    <path d="M21.2471 31.8982L21.1342 38.9605C21.1283 39.4891 21.5559 39.9227 22.0846 39.9227H22.1083L29.1172 39.7505C29.236 39.7445 29.3548 39.697 29.438 39.6139L54.1413 14.964C54.3254 14.7799 54.3254 14.4769 54.1413 14.2928L46.7582 6.91567C46.6632 6.82063 46.5444 6.77905 46.4196 6.77905C46.2949 6.77905 46.1761 6.82657 46.0811 6.91567L21.3837 31.5655C21.2979 31.6552 21.2491 31.774 21.2471 31.8982ZM25.0188 33.2999L46.4196 11.9466L49.1044 14.6254L27.6917 35.9906L24.9772 36.056L25.0188 33.2999Z" fill="#005071"/>
</svg>