<svg xmlns="http://www.w3.org/2000/svg" width="93" height="81" viewBox="0 0 93 81" fill="none">
  <path d="M86.5 41C88.678 40.9999 90.8523 40.8398 93 40.5214C92.8587 30.0783 88.077 20.0979 79.6766 12.7129C71.2762 5.32795 59.9235 1.12422 48.0444 1C47.6822 2.88811 47.5002 4.79952 47.5 6.71429C47.5 25.6196 64.9952 41 86.5 41ZM46.9617 81C47.1527 79.9875 47.2969 78.9643 47.3862 77.9321C47.4614 77.0607 47.5 76.1714 47.5 75.2911C47.5 56.3857 30.0048 41.0054 8.5 41.0054C6.32196 41.0055 4.14773 41.1656 2 41.4839C2.1429 51.9271 6.92619 61.9069 15.3277 69.2909C23.7292 76.6748 35.0826 80.8772 46.9617 81Z" fill="#ABCF38"/>
  <path d="M52.3885 33.9434C48.112 30.2045 44.7215 25.757 42.4133 20.8584C40.1051 15.9599 38.925 10.7075 38.9414 5.40528C38.9415 3.59752 39.0784 1.79177 39.3514 0C29.3896 1.18592 20.1456 5.21216 13.0373 11.4611C5.92896 17.71 1.34901 25.8364 0 34.5938C2.03818 34.3539 4.09227 34.2335 6.14865 34.2335C12.18 34.219 18.1548 35.2564 23.727 37.2856C29.2993 39.3147 34.3584 42.2953 38.6115 46.0548C42.888 49.7937 46.2785 54.2412 48.5867 59.1398C50.8949 64.0383 52.075 69.2907 52.0586 74.5929C52.0586 75.6271 52.0135 76.6703 51.9253 77.6955C51.857 78.4667 51.7641 79.2349 51.6466 80C61.6087 78.8138 70.8531 74.7872 77.9618 68.538C85.0704 62.2889 89.6507 54.1621 91 45.4044C88.9618 45.6443 86.9077 45.7647 84.8514 45.7647C78.82 45.7792 72.8452 44.7418 67.273 42.7126C61.7007 40.6835 56.6416 37.7029 52.3885 33.9434Z" fill="#ABCF38"/>
</svg>