<svg xmlns="http://www.w3.org/2000/svg" width="151" height="139" viewBox="0 0 151 139" fill="none">
    <path d="M112.538 56.0769C112.538 52.0783 110.804 48.2434 107.717 45.4159C104.63 42.5885 100.443 41 96.0769 41C91.7111 41 87.524 42.5885 84.4369 45.4159C81.3497 48.2434 79.6154 52.0783 79.6154 56.0769C79.6338 60.0691 81.3802 63.8917 84.4715 66.7062L50.0669 98.2169C46.994 95.3856 42.8204 93.7861 38.4615 93.7692C34.0957 93.7692 29.9086 95.3577 26.8215 98.1852C23.7343 101.013 22 104.848 22 108.846C22 112.845 23.7343 116.68 26.8215 119.507C29.9086 122.335 34.0957 123.923 38.4615 123.923C38.4615 127.922 40.1959 131.757 43.283 134.584C46.3701 137.412 50.5572 139 54.9231 139C59.2889 139 63.476 137.412 66.5631 134.584C69.6503 131.757 71.3846 127.922 71.3846 123.923C71.3662 119.931 69.6198 116.108 66.5285 113.294L100.933 81.7831C104.006 84.6144 108.18 86.2139 112.538 86.2308C116.904 86.2308 121.091 84.6423 124.179 81.8148C127.266 78.9874 129 75.1525 129 71.1538C129 67.1552 127.266 63.3203 124.179 60.4929C121.091 57.6654 116.904 56.0769 112.538 56.0769Z" fill="#ABCF38"/>
</svg>
