<svg xmlns="http://www.w3.org/2000/svg" width="64" height="66" viewBox="0 0 64 66" fill="none">
    <g clip-path="url(#clip0_485_325)">
        <path fill-rule="evenodd" clip-rule="evenodd" d="M61.9136 12.3018C62.4599 12.5301 62.9283 12.9245 63.2585 13.4341C63.5886 13.9437 63.7653 14.5452 63.7658 15.161V50.7444C63.7653 51.3602 63.5886 51.9617 63.2585 52.4713C62.9283 52.9809 62.4599 53.3753 61.9136 53.6036L33.4642 65.5167C32.7627 65.8105 31.9801 65.8105 31.2786 65.5167L2.82918 53.6036C2.28362 53.3747 1.81602 52.98 1.48661 52.4704C1.15721 51.9609 0.981094 51.3597 0.980957 50.7444L0.980957 15.161C0.981094 14.5457 1.15721 13.9445 1.48661 13.435C1.81602 12.9254 2.28362 12.5307 2.82918 12.3018L30.1877 0.844643L30.2034 0.840535L31.2786 0.388656C31.9813 0.0938367 32.7655 0.0938367 33.4682 0.388656L34.5434 0.840535L34.5591 0.844643L61.9136 12.3018ZM56.522 14.4667L32.3734 24.5806L8.22475 14.4667L4.90501 15.8594V17.5025L30.4113 28.1833V60.7268L32.3734 61.5484L34.3354 60.7268V28.1874L59.8417 17.5067V15.8635L56.522 14.4667Z" fill="#005071"/>
    </g>
    <defs>
        <clipPath id="clip0_485_325">
            <rect width="62.7848" height="65.7279" fill="white" transform="translate(0.980957 0.088562)"/>
        </clipPath>
    </defs>
</svg>
